<?xml version="1.0" standalone="no"?>
<!DOCTYPE svg PUBLIC "-//W3C//DTD SVG 20010904//EN"
 "http://www.w3.org/TR/2001/REC-SVG-20010904/DTD/svg10.dtd">
<svg version="1.0" xmlns="http://www.w3.org/2000/svg"
 width="300.000000pt" height="300.000000pt" viewBox="0 0 300.000000 300.000000"
 preserveAspectRatio="xMidYMid meet">
<metadata>
Created by potrace 1.11, written by Peter Selinger 2001-2013
</metadata>
<g transform="translate(0.000000,300.000000) scale(0.100000,-0.100000)"
fill="#000000" stroke="none">
<path d="M279 1911 c-203 -79 -316 -296 -264 -506 22 -86 36 -116 89 -180 50
-62 59 -68 121 -99 110 -54 39 -51 1255 -54 1015 -2 1142 -1 1201 13 72 18
127 50 195 115 100 95 124 152 124 297 0 165 -58 280 -182 363 -112 74 -28 70
-1327 70 -1098 -1 -1169 -2 -1212 -19z m2422 -89 c80 -32 142 -90 181 -170 29
-59 33 -76 33 -147 -1 -65 -6 -91 -27 -136 -36 -79 -89 -134 -167 -172 l-66
-32 -1150 0 -1150 0 -57 27 c-76 35 -142 98 -175 167 -24 49 -28 68 -27 146 0
70 5 100 21 137 44 96 145 177 247 198 22 4 545 7 1161 7 l1120 -2 56 -23z"/>
<path d="M1241 1688 c-42 -21 -101 -87 -101 -115 0 -10 -30 -13 -145 -13
l-145 0 0 -50 0 -50 140 0 140 0 15 -37 c51 -121 195 -159 307 -81 19 13 29
15 34 7 3 -6 27 -20 52 -31 38 -17 56 -19 119 -13 72 7 75 8 90 41 17 34 17
34 88 34 71 0 71 0 86 -32 l14 -33 105 0 105 0 5 85 5 84 68 -87 68 -87 49 0
49 0 3 58 3 57 23 -37 c27 -43 109 -88 161 -88 58 0 136 42 167 90 40 60 45
147 12 210 -68 132 -252 147 -339 27 l-29 -40 0 56 0 57 -40 0 -39 0 -3 -94
-3 -95 -80 92 c-76 87 -83 92 -120 92 l-40 0 -5 -149 -5 -150 -72 152 -72 152
-40 0 c-22 0 -43 -6 -48 -12 -4 -7 -38 -78 -75 -158 -64 -139 -69 -145 -99
-148 -17 -2 -44 2 -60 8 l-29 12 0 98 c0 81 3 100 18 113 22 20 84 22 112 5
17 -11 23 -9 42 9 19 19 20 24 7 39 -21 25 -73 44 -122 44 -59 0 -125 -36
-162 -89 -27 -39 -30 -50 -31 -128 0 -72 -3 -88 -19 -99 -23 -17 -75 -18 -110
-2 -24 11 -25 14 -25 113 0 98 1 102 25 115 16 8 41 11 74 7 39 -5 52 -2 65
12 22 25 21 28 -24 51 -51 26 -114 25 -169 -2z m1382 -137 c62 -62 69 -73 63
-98 -8 -32 -31 -53 -60 -53 -26 0 -156 130 -156 156 0 27 36 64 62 64 13 0 48
-27 91 -69z m-759 -63 l15 -38 -40 0 c-21 0 -39 2 -39 5 0 2 7 23 16 45 18 45
25 43 48 -12z"/>
<path d="M2766 1689 c-19 -28 -4 -62 26 -57 29 4 46 33 32 56 -16 25 -40 26
-58 1z"/>
<path d="M318 1515 c-78 -102 -144 -190 -146 -195 -2 -6 19 -10 47 -10 l51 0
67 90 68 91 3 -91 3 -90 49 0 50 0 68 86 67 86 5 -84 5 -83 243 -3 242 -2 0
50 0 50 -170 0 -169 0 -3 143 -3 142 -46 3 -47 3 -78 -101 -79 -101 -3 101 -3
100 -39 0 c-38 0 -39 -1 -182 -185z"/>
<path d="M850 1650 l0 -50 145 0 145 0 0 50 0 50 -145 0 -145 0 0 -50z"/>
<path d="M2182 1690 c5 -15 102 -129 111 -129 4 -1 7 31 7 69 l0 70 -61 0
c-36 0 -59 -4 -57 -10z"/>
</g>
</svg>
